%TF.GenerationSoftware,KiCad,Pcbnew,10.0.4*%
%TF.CreationDate,2026-06-26T20:14:06+05:30*%
%TF.ProjectId,tilt,74696c74-2e6b-4696-9361-645f70636258,rev?*%
%TF.SameCoordinates,Original*%
%TF.FileFunction,Legend,Top*%
%TF.FilePolarity,Positive*%
%FSLAX46Y46*%
G04 Gerber Fmt 4.6, Leading zero omitted, Abs format (unit mm)*
G04 Created by KiCad (PCBNEW 10.0.4) date 2026-06-26 20:14:06*
%MOMM*%
%LPD*%
G01*
G04 APERTURE LIST*
%ADD10C,0.150000*%
%ADD11C,0.120000*%
G04 APERTURE END LIST*
D10*
X100584819Y-98642857D02*
X100108628Y-98976190D01*
X100584819Y-99214285D02*
X99584819Y-99214285D01*
X99584819Y-99214285D02*
X99584819Y-98833333D01*
X99584819Y-98833333D02*
X99632438Y-98738095D01*
X99632438Y-98738095D02*
X99680057Y-98690476D01*
X99680057Y-98690476D02*
X99775295Y-98642857D01*
X99775295Y-98642857D02*
X99918152Y-98642857D01*
X99918152Y-98642857D02*
X100013390Y-98690476D01*
X100013390Y-98690476D02*
X100061009Y-98738095D01*
X100061009Y-98738095D02*
X100108628Y-98833333D01*
X100108628Y-98833333D02*
X100108628Y-99214285D01*
X100584819Y-97690476D02*
X100584819Y-98261904D01*
X100584819Y-97976190D02*
X99584819Y-97976190D01*
X99584819Y-97976190D02*
X99727676Y-98071428D01*
X99727676Y-98071428D02*
X99822914Y-98166666D01*
X99822914Y-98166666D02*
X99870533Y-98261904D01*
X100584819Y-96738095D02*
X100584819Y-97309523D01*
X100584819Y-97023809D02*
X99584819Y-97023809D01*
X99584819Y-97023809D02*
X99727676Y-97119047D01*
X99727676Y-97119047D02*
X99822914Y-97214285D01*
X99822914Y-97214285D02*
X99870533Y-97309523D01*
X107584819Y-72166666D02*
X107108628Y-72499999D01*
X107584819Y-72738094D02*
X106584819Y-72738094D01*
X106584819Y-72738094D02*
X106584819Y-72357142D01*
X106584819Y-72357142D02*
X106632438Y-72261904D01*
X106632438Y-72261904D02*
X106680057Y-72214285D01*
X106680057Y-72214285D02*
X106775295Y-72166666D01*
X106775295Y-72166666D02*
X106918152Y-72166666D01*
X106918152Y-72166666D02*
X107013390Y-72214285D01*
X107013390Y-72214285D02*
X107061009Y-72261904D01*
X107061009Y-72261904D02*
X107108628Y-72357142D01*
X107108628Y-72357142D02*
X107108628Y-72738094D01*
X106918152Y-71309523D02*
X107584819Y-71309523D01*
X106537200Y-71547618D02*
X107251485Y-71785713D01*
X107251485Y-71785713D02*
X107251485Y-71166666D01*
X141904761Y-109490057D02*
X141809523Y-109442438D01*
X141809523Y-109442438D02*
X141714285Y-109347200D01*
X141714285Y-109347200D02*
X141571428Y-109204342D01*
X141571428Y-109204342D02*
X141476190Y-109156723D01*
X141476190Y-109156723D02*
X141380952Y-109156723D01*
X141428571Y-109394819D02*
X141333333Y-109347200D01*
X141333333Y-109347200D02*
X141238095Y-109251961D01*
X141238095Y-109251961D02*
X141190476Y-109061485D01*
X141190476Y-109061485D02*
X141190476Y-108728152D01*
X141190476Y-108728152D02*
X141238095Y-108537676D01*
X141238095Y-108537676D02*
X141333333Y-108442438D01*
X141333333Y-108442438D02*
X141428571Y-108394819D01*
X141428571Y-108394819D02*
X141619047Y-108394819D01*
X141619047Y-108394819D02*
X141714285Y-108442438D01*
X141714285Y-108442438D02*
X141809523Y-108537676D01*
X141809523Y-108537676D02*
X141857142Y-108728152D01*
X141857142Y-108728152D02*
X141857142Y-109061485D01*
X141857142Y-109061485D02*
X141809523Y-109251961D01*
X141809523Y-109251961D02*
X141714285Y-109347200D01*
X141714285Y-109347200D02*
X141619047Y-109394819D01*
X141619047Y-109394819D02*
X141428571Y-109394819D01*
X142428571Y-108823390D02*
X142333333Y-108775771D01*
X142333333Y-108775771D02*
X142285714Y-108728152D01*
X142285714Y-108728152D02*
X142238095Y-108632914D01*
X142238095Y-108632914D02*
X142238095Y-108585295D01*
X142238095Y-108585295D02*
X142285714Y-108490057D01*
X142285714Y-108490057D02*
X142333333Y-108442438D01*
X142333333Y-108442438D02*
X142428571Y-108394819D01*
X142428571Y-108394819D02*
X142619047Y-108394819D01*
X142619047Y-108394819D02*
X142714285Y-108442438D01*
X142714285Y-108442438D02*
X142761904Y-108490057D01*
X142761904Y-108490057D02*
X142809523Y-108585295D01*
X142809523Y-108585295D02*
X142809523Y-108632914D01*
X142809523Y-108632914D02*
X142761904Y-108728152D01*
X142761904Y-108728152D02*
X142714285Y-108775771D01*
X142714285Y-108775771D02*
X142619047Y-108823390D01*
X142619047Y-108823390D02*
X142428571Y-108823390D01*
X142428571Y-108823390D02*
X142333333Y-108871009D01*
X142333333Y-108871009D02*
X142285714Y-108918628D01*
X142285714Y-108918628D02*
X142238095Y-109013866D01*
X142238095Y-109013866D02*
X142238095Y-109204342D01*
X142238095Y-109204342D02*
X142285714Y-109299580D01*
X142285714Y-109299580D02*
X142333333Y-109347200D01*
X142333333Y-109347200D02*
X142428571Y-109394819D01*
X142428571Y-109394819D02*
X142619047Y-109394819D01*
X142619047Y-109394819D02*
X142714285Y-109347200D01*
X142714285Y-109347200D02*
X142761904Y-109299580D01*
X142761904Y-109299580D02*
X142809523Y-109204342D01*
X142809523Y-109204342D02*
X142809523Y-109013866D01*
X142809523Y-109013866D02*
X142761904Y-108918628D01*
X142761904Y-108918628D02*
X142714285Y-108871009D01*
X142714285Y-108871009D02*
X142619047Y-108823390D01*
X120833333Y-74084819D02*
X120500000Y-73608628D01*
X120261905Y-74084819D02*
X120261905Y-73084819D01*
X120261905Y-73084819D02*
X120642857Y-73084819D01*
X120642857Y-73084819D02*
X120738095Y-73132438D01*
X120738095Y-73132438D02*
X120785714Y-73180057D01*
X120785714Y-73180057D02*
X120833333Y-73275295D01*
X120833333Y-73275295D02*
X120833333Y-73418152D01*
X120833333Y-73418152D02*
X120785714Y-73513390D01*
X120785714Y-73513390D02*
X120738095Y-73561009D01*
X120738095Y-73561009D02*
X120642857Y-73608628D01*
X120642857Y-73608628D02*
X120261905Y-73608628D01*
X121166667Y-73084819D02*
X121785714Y-73084819D01*
X121785714Y-73084819D02*
X121452381Y-73465771D01*
X121452381Y-73465771D02*
X121595238Y-73465771D01*
X121595238Y-73465771D02*
X121690476Y-73513390D01*
X121690476Y-73513390D02*
X121738095Y-73561009D01*
X121738095Y-73561009D02*
X121785714Y-73656247D01*
X121785714Y-73656247D02*
X121785714Y-73894342D01*
X121785714Y-73894342D02*
X121738095Y-73989580D01*
X121738095Y-73989580D02*
X121690476Y-74037200D01*
X121690476Y-74037200D02*
X121595238Y-74084819D01*
X121595238Y-74084819D02*
X121309524Y-74084819D01*
X121309524Y-74084819D02*
X121214286Y-74037200D01*
X121214286Y-74037200D02*
X121166667Y-73989580D01*
X117634761Y-109490057D02*
X117539523Y-109442438D01*
X117539523Y-109442438D02*
X117444285Y-109347200D01*
X117444285Y-109347200D02*
X117301428Y-109204342D01*
X117301428Y-109204342D02*
X117206190Y-109156723D01*
X117206190Y-109156723D02*
X117110952Y-109156723D01*
X117158571Y-109394819D02*
X117063333Y-109347200D01*
X117063333Y-109347200D02*
X116968095Y-109251961D01*
X116968095Y-109251961D02*
X116920476Y-109061485D01*
X116920476Y-109061485D02*
X116920476Y-108728152D01*
X116920476Y-108728152D02*
X116968095Y-108537676D01*
X116968095Y-108537676D02*
X117063333Y-108442438D01*
X117063333Y-108442438D02*
X117158571Y-108394819D01*
X117158571Y-108394819D02*
X117349047Y-108394819D01*
X117349047Y-108394819D02*
X117444285Y-108442438D01*
X117444285Y-108442438D02*
X117539523Y-108537676D01*
X117539523Y-108537676D02*
X117587142Y-108728152D01*
X117587142Y-108728152D02*
X117587142Y-109061485D01*
X117587142Y-109061485D02*
X117539523Y-109251961D01*
X117539523Y-109251961D02*
X117444285Y-109347200D01*
X117444285Y-109347200D02*
X117349047Y-109394819D01*
X117349047Y-109394819D02*
X117158571Y-109394819D01*
X118539523Y-109394819D02*
X117968095Y-109394819D01*
X118253809Y-109394819D02*
X118253809Y-108394819D01*
X118253809Y-108394819D02*
X118158571Y-108537676D01*
X118158571Y-108537676D02*
X118063333Y-108632914D01*
X118063333Y-108632914D02*
X117968095Y-108680533D01*
X107584819Y-104642857D02*
X107108628Y-104976190D01*
X107584819Y-105214285D02*
X106584819Y-105214285D01*
X106584819Y-105214285D02*
X106584819Y-104833333D01*
X106584819Y-104833333D02*
X106632438Y-104738095D01*
X106632438Y-104738095D02*
X106680057Y-104690476D01*
X106680057Y-104690476D02*
X106775295Y-104642857D01*
X106775295Y-104642857D02*
X106918152Y-104642857D01*
X106918152Y-104642857D02*
X107013390Y-104690476D01*
X107013390Y-104690476D02*
X107061009Y-104738095D01*
X107061009Y-104738095D02*
X107108628Y-104833333D01*
X107108628Y-104833333D02*
X107108628Y-105214285D01*
X107584819Y-103690476D02*
X107584819Y-104261904D01*
X107584819Y-103976190D02*
X106584819Y-103976190D01*
X106584819Y-103976190D02*
X106727676Y-104071428D01*
X106727676Y-104071428D02*
X106822914Y-104166666D01*
X106822914Y-104166666D02*
X106870533Y-104261904D01*
X106680057Y-103309523D02*
X106632438Y-103261904D01*
X106632438Y-103261904D02*
X106584819Y-103166666D01*
X106584819Y-103166666D02*
X106584819Y-102928571D01*
X106584819Y-102928571D02*
X106632438Y-102833333D01*
X106632438Y-102833333D02*
X106680057Y-102785714D01*
X106680057Y-102785714D02*
X106775295Y-102738095D01*
X106775295Y-102738095D02*
X106870533Y-102738095D01*
X106870533Y-102738095D02*
X107013390Y-102785714D01*
X107013390Y-102785714D02*
X107584819Y-103357142D01*
X107584819Y-103357142D02*
X107584819Y-102738095D01*
X125404761Y-109490057D02*
X125309523Y-109442438D01*
X125309523Y-109442438D02*
X125214285Y-109347200D01*
X125214285Y-109347200D02*
X125071428Y-109204342D01*
X125071428Y-109204342D02*
X124976190Y-109156723D01*
X124976190Y-109156723D02*
X124880952Y-109156723D01*
X124928571Y-109394819D02*
X124833333Y-109347200D01*
X124833333Y-109347200D02*
X124738095Y-109251961D01*
X124738095Y-109251961D02*
X124690476Y-109061485D01*
X124690476Y-109061485D02*
X124690476Y-108728152D01*
X124690476Y-108728152D02*
X124738095Y-108537676D01*
X124738095Y-108537676D02*
X124833333Y-108442438D01*
X124833333Y-108442438D02*
X124928571Y-108394819D01*
X124928571Y-108394819D02*
X125119047Y-108394819D01*
X125119047Y-108394819D02*
X125214285Y-108442438D01*
X125214285Y-108442438D02*
X125309523Y-108537676D01*
X125309523Y-108537676D02*
X125357142Y-108728152D01*
X125357142Y-108728152D02*
X125357142Y-109061485D01*
X125357142Y-109061485D02*
X125309523Y-109251961D01*
X125309523Y-109251961D02*
X125214285Y-109347200D01*
X125214285Y-109347200D02*
X125119047Y-109394819D01*
X125119047Y-109394819D02*
X124928571Y-109394819D01*
X125738095Y-108490057D02*
X125785714Y-108442438D01*
X125785714Y-108442438D02*
X125880952Y-108394819D01*
X125880952Y-108394819D02*
X126119047Y-108394819D01*
X126119047Y-108394819D02*
X126214285Y-108442438D01*
X126214285Y-108442438D02*
X126261904Y-108490057D01*
X126261904Y-108490057D02*
X126309523Y-108585295D01*
X126309523Y-108585295D02*
X126309523Y-108680533D01*
X126309523Y-108680533D02*
X126261904Y-108823390D01*
X126261904Y-108823390D02*
X125690476Y-109394819D01*
X125690476Y-109394819D02*
X126309523Y-109394819D01*
X107584819Y-88246666D02*
X107108628Y-88579999D01*
X107584819Y-88818094D02*
X106584819Y-88818094D01*
X106584819Y-88818094D02*
X106584819Y-88437142D01*
X106584819Y-88437142D02*
X106632438Y-88341904D01*
X106632438Y-88341904D02*
X106680057Y-88294285D01*
X106680057Y-88294285D02*
X106775295Y-88246666D01*
X106775295Y-88246666D02*
X106918152Y-88246666D01*
X106918152Y-88246666D02*
X107013390Y-88294285D01*
X107013390Y-88294285D02*
X107061009Y-88341904D01*
X107061009Y-88341904D02*
X107108628Y-88437142D01*
X107108628Y-88437142D02*
X107108628Y-88818094D01*
X106584819Y-87341904D02*
X106584819Y-87818094D01*
X106584819Y-87818094D02*
X107061009Y-87865713D01*
X107061009Y-87865713D02*
X107013390Y-87818094D01*
X107013390Y-87818094D02*
X106965771Y-87722856D01*
X106965771Y-87722856D02*
X106965771Y-87484761D01*
X106965771Y-87484761D02*
X107013390Y-87389523D01*
X107013390Y-87389523D02*
X107061009Y-87341904D01*
X107061009Y-87341904D02*
X107156247Y-87294285D01*
X107156247Y-87294285D02*
X107394342Y-87294285D01*
X107394342Y-87294285D02*
X107489580Y-87341904D01*
X107489580Y-87341904D02*
X107537200Y-87389523D01*
X107537200Y-87389523D02*
X107584819Y-87484761D01*
X107584819Y-87484761D02*
X107584819Y-87722856D01*
X107584819Y-87722856D02*
X107537200Y-87818094D01*
X107537200Y-87818094D02*
X107489580Y-87865713D01*
X120357142Y-103084819D02*
X120023809Y-102608628D01*
X119785714Y-103084819D02*
X119785714Y-102084819D01*
X119785714Y-102084819D02*
X120166666Y-102084819D01*
X120166666Y-102084819D02*
X120261904Y-102132438D01*
X120261904Y-102132438D02*
X120309523Y-102180057D01*
X120309523Y-102180057D02*
X120357142Y-102275295D01*
X120357142Y-102275295D02*
X120357142Y-102418152D01*
X120357142Y-102418152D02*
X120309523Y-102513390D01*
X120309523Y-102513390D02*
X120261904Y-102561009D01*
X120261904Y-102561009D02*
X120166666Y-102608628D01*
X120166666Y-102608628D02*
X119785714Y-102608628D01*
X121309523Y-103084819D02*
X120738095Y-103084819D01*
X121023809Y-103084819D02*
X121023809Y-102084819D01*
X121023809Y-102084819D02*
X120928571Y-102227676D01*
X120928571Y-102227676D02*
X120833333Y-102322914D01*
X120833333Y-102322914D02*
X120738095Y-102370533D01*
X121928571Y-102084819D02*
X122023809Y-102084819D01*
X122023809Y-102084819D02*
X122119047Y-102132438D01*
X122119047Y-102132438D02*
X122166666Y-102180057D01*
X122166666Y-102180057D02*
X122214285Y-102275295D01*
X122214285Y-102275295D02*
X122261904Y-102465771D01*
X122261904Y-102465771D02*
X122261904Y-102703866D01*
X122261904Y-102703866D02*
X122214285Y-102894342D01*
X122214285Y-102894342D02*
X122166666Y-102989580D01*
X122166666Y-102989580D02*
X122119047Y-103037200D01*
X122119047Y-103037200D02*
X122023809Y-103084819D01*
X122023809Y-103084819D02*
X121928571Y-103084819D01*
X121928571Y-103084819D02*
X121833333Y-103037200D01*
X121833333Y-103037200D02*
X121785714Y-102989580D01*
X121785714Y-102989580D02*
X121738095Y-102894342D01*
X121738095Y-102894342D02*
X121690476Y-102703866D01*
X121690476Y-102703866D02*
X121690476Y-102465771D01*
X121690476Y-102465771D02*
X121738095Y-102275295D01*
X121738095Y-102275295D02*
X121785714Y-102180057D01*
X121785714Y-102180057D02*
X121833333Y-102132438D01*
X121833333Y-102132438D02*
X121928571Y-102084819D01*
X151666666Y-92264819D02*
X151666666Y-92979104D01*
X151666666Y-92979104D02*
X151619047Y-93121961D01*
X151619047Y-93121961D02*
X151523809Y-93217200D01*
X151523809Y-93217200D02*
X151380952Y-93264819D01*
X151380952Y-93264819D02*
X151285714Y-93264819D01*
X152666666Y-93264819D02*
X152095238Y-93264819D01*
X152380952Y-93264819D02*
X152380952Y-92264819D01*
X152380952Y-92264819D02*
X152285714Y-92407676D01*
X152285714Y-92407676D02*
X152190476Y-92502914D01*
X152190476Y-92502914D02*
X152095238Y-92550533D01*
X141904761Y-89850057D02*
X141809523Y-89802438D01*
X141809523Y-89802438D02*
X141714285Y-89707200D01*
X141714285Y-89707200D02*
X141571428Y-89564342D01*
X141571428Y-89564342D02*
X141476190Y-89516723D01*
X141476190Y-89516723D02*
X141380952Y-89516723D01*
X141428571Y-89754819D02*
X141333333Y-89707200D01*
X141333333Y-89707200D02*
X141238095Y-89611961D01*
X141238095Y-89611961D02*
X141190476Y-89421485D01*
X141190476Y-89421485D02*
X141190476Y-89088152D01*
X141190476Y-89088152D02*
X141238095Y-88897676D01*
X141238095Y-88897676D02*
X141333333Y-88802438D01*
X141333333Y-88802438D02*
X141428571Y-88754819D01*
X141428571Y-88754819D02*
X141619047Y-88754819D01*
X141619047Y-88754819D02*
X141714285Y-88802438D01*
X141714285Y-88802438D02*
X141809523Y-88897676D01*
X141809523Y-88897676D02*
X141857142Y-89088152D01*
X141857142Y-89088152D02*
X141857142Y-89421485D01*
X141857142Y-89421485D02*
X141809523Y-89611961D01*
X141809523Y-89611961D02*
X141714285Y-89707200D01*
X141714285Y-89707200D02*
X141619047Y-89754819D01*
X141619047Y-89754819D02*
X141428571Y-89754819D01*
X142714285Y-88754819D02*
X142523809Y-88754819D01*
X142523809Y-88754819D02*
X142428571Y-88802438D01*
X142428571Y-88802438D02*
X142380952Y-88850057D01*
X142380952Y-88850057D02*
X142285714Y-88992914D01*
X142285714Y-88992914D02*
X142238095Y-89183390D01*
X142238095Y-89183390D02*
X142238095Y-89564342D01*
X142238095Y-89564342D02*
X142285714Y-89659580D01*
X142285714Y-89659580D02*
X142333333Y-89707200D01*
X142333333Y-89707200D02*
X142428571Y-89754819D01*
X142428571Y-89754819D02*
X142619047Y-89754819D01*
X142619047Y-89754819D02*
X142714285Y-89707200D01*
X142714285Y-89707200D02*
X142761904Y-89659580D01*
X142761904Y-89659580D02*
X142809523Y-89564342D01*
X142809523Y-89564342D02*
X142809523Y-89326247D01*
X142809523Y-89326247D02*
X142761904Y-89231009D01*
X142761904Y-89231009D02*
X142714285Y-89183390D01*
X142714285Y-89183390D02*
X142619047Y-89135771D01*
X142619047Y-89135771D02*
X142428571Y-89135771D01*
X142428571Y-89135771D02*
X142333333Y-89183390D01*
X142333333Y-89183390D02*
X142285714Y-89231009D01*
X142285714Y-89231009D02*
X142238095Y-89326247D01*
X100584819Y-78666666D02*
X100108628Y-78999999D01*
X100584819Y-79238094D02*
X99584819Y-79238094D01*
X99584819Y-79238094D02*
X99584819Y-78857142D01*
X99584819Y-78857142D02*
X99632438Y-78761904D01*
X99632438Y-78761904D02*
X99680057Y-78714285D01*
X99680057Y-78714285D02*
X99775295Y-78666666D01*
X99775295Y-78666666D02*
X99918152Y-78666666D01*
X99918152Y-78666666D02*
X100013390Y-78714285D01*
X100013390Y-78714285D02*
X100061009Y-78761904D01*
X100061009Y-78761904D02*
X100108628Y-78857142D01*
X100108628Y-78857142D02*
X100108628Y-79238094D01*
X99584819Y-77809523D02*
X99584819Y-77999999D01*
X99584819Y-77999999D02*
X99632438Y-78095237D01*
X99632438Y-78095237D02*
X99680057Y-78142856D01*
X99680057Y-78142856D02*
X99822914Y-78238094D01*
X99822914Y-78238094D02*
X100013390Y-78285713D01*
X100013390Y-78285713D02*
X100394342Y-78285713D01*
X100394342Y-78285713D02*
X100489580Y-78238094D01*
X100489580Y-78238094D02*
X100537200Y-78190475D01*
X100537200Y-78190475D02*
X100584819Y-78095237D01*
X100584819Y-78095237D02*
X100584819Y-77904761D01*
X100584819Y-77904761D02*
X100537200Y-77809523D01*
X100537200Y-77809523D02*
X100489580Y-77761904D01*
X100489580Y-77761904D02*
X100394342Y-77714285D01*
X100394342Y-77714285D02*
X100156247Y-77714285D01*
X100156247Y-77714285D02*
X100061009Y-77761904D01*
X100061009Y-77761904D02*
X100013390Y-77809523D01*
X100013390Y-77809523D02*
X99965771Y-77904761D01*
X99965771Y-77904761D02*
X99965771Y-78095237D01*
X99965771Y-78095237D02*
X100013390Y-78190475D01*
X100013390Y-78190475D02*
X100061009Y-78238094D01*
X100061009Y-78238094D02*
X100156247Y-78285713D01*
X120833333Y-95584819D02*
X120500000Y-95108628D01*
X120261905Y-95584819D02*
X120261905Y-94584819D01*
X120261905Y-94584819D02*
X120642857Y-94584819D01*
X120642857Y-94584819D02*
X120738095Y-94632438D01*
X120738095Y-94632438D02*
X120785714Y-94680057D01*
X120785714Y-94680057D02*
X120833333Y-94775295D01*
X120833333Y-94775295D02*
X120833333Y-94918152D01*
X120833333Y-94918152D02*
X120785714Y-95013390D01*
X120785714Y-95013390D02*
X120738095Y-95061009D01*
X120738095Y-95061009D02*
X120642857Y-95108628D01*
X120642857Y-95108628D02*
X120261905Y-95108628D01*
X121309524Y-95584819D02*
X121500000Y-95584819D01*
X121500000Y-95584819D02*
X121595238Y-95537200D01*
X121595238Y-95537200D02*
X121642857Y-95489580D01*
X121642857Y-95489580D02*
X121738095Y-95346723D01*
X121738095Y-95346723D02*
X121785714Y-95156247D01*
X121785714Y-95156247D02*
X121785714Y-94775295D01*
X121785714Y-94775295D02*
X121738095Y-94680057D01*
X121738095Y-94680057D02*
X121690476Y-94632438D01*
X121690476Y-94632438D02*
X121595238Y-94584819D01*
X121595238Y-94584819D02*
X121404762Y-94584819D01*
X121404762Y-94584819D02*
X121309524Y-94632438D01*
X121309524Y-94632438D02*
X121261905Y-94680057D01*
X121261905Y-94680057D02*
X121214286Y-94775295D01*
X121214286Y-94775295D02*
X121214286Y-95013390D01*
X121214286Y-95013390D02*
X121261905Y-95108628D01*
X121261905Y-95108628D02*
X121309524Y-95156247D01*
X121309524Y-95156247D02*
X121404762Y-95203866D01*
X121404762Y-95203866D02*
X121595238Y-95203866D01*
X121595238Y-95203866D02*
X121690476Y-95156247D01*
X121690476Y-95156247D02*
X121738095Y-95108628D01*
X121738095Y-95108628D02*
X121785714Y-95013390D01*
X151666666Y-71994819D02*
X151666666Y-72709104D01*
X151666666Y-72709104D02*
X151619047Y-72851961D01*
X151619047Y-72851961D02*
X151523809Y-72947200D01*
X151523809Y-72947200D02*
X151380952Y-72994819D01*
X151380952Y-72994819D02*
X151285714Y-72994819D01*
X152095238Y-72090057D02*
X152142857Y-72042438D01*
X152142857Y-72042438D02*
X152238095Y-71994819D01*
X152238095Y-71994819D02*
X152476190Y-71994819D01*
X152476190Y-71994819D02*
X152571428Y-72042438D01*
X152571428Y-72042438D02*
X152619047Y-72090057D01*
X152619047Y-72090057D02*
X152666666Y-72185295D01*
X152666666Y-72185295D02*
X152666666Y-72280533D01*
X152666666Y-72280533D02*
X152619047Y-72423390D01*
X152619047Y-72423390D02*
X152047619Y-72994819D01*
X152047619Y-72994819D02*
X152666666Y-72994819D01*
X133404761Y-89850057D02*
X133309523Y-89802438D01*
X133309523Y-89802438D02*
X133214285Y-89707200D01*
X133214285Y-89707200D02*
X133071428Y-89564342D01*
X133071428Y-89564342D02*
X132976190Y-89516723D01*
X132976190Y-89516723D02*
X132880952Y-89516723D01*
X132928571Y-89754819D02*
X132833333Y-89707200D01*
X132833333Y-89707200D02*
X132738095Y-89611961D01*
X132738095Y-89611961D02*
X132690476Y-89421485D01*
X132690476Y-89421485D02*
X132690476Y-89088152D01*
X132690476Y-89088152D02*
X132738095Y-88897676D01*
X132738095Y-88897676D02*
X132833333Y-88802438D01*
X132833333Y-88802438D02*
X132928571Y-88754819D01*
X132928571Y-88754819D02*
X133119047Y-88754819D01*
X133119047Y-88754819D02*
X133214285Y-88802438D01*
X133214285Y-88802438D02*
X133309523Y-88897676D01*
X133309523Y-88897676D02*
X133357142Y-89088152D01*
X133357142Y-89088152D02*
X133357142Y-89421485D01*
X133357142Y-89421485D02*
X133309523Y-89611961D01*
X133309523Y-89611961D02*
X133214285Y-89707200D01*
X133214285Y-89707200D02*
X133119047Y-89754819D01*
X133119047Y-89754819D02*
X132928571Y-89754819D01*
X134261904Y-88754819D02*
X133785714Y-88754819D01*
X133785714Y-88754819D02*
X133738095Y-89231009D01*
X133738095Y-89231009D02*
X133785714Y-89183390D01*
X133785714Y-89183390D02*
X133880952Y-89135771D01*
X133880952Y-89135771D02*
X134119047Y-89135771D01*
X134119047Y-89135771D02*
X134214285Y-89183390D01*
X134214285Y-89183390D02*
X134261904Y-89231009D01*
X134261904Y-89231009D02*
X134309523Y-89326247D01*
X134309523Y-89326247D02*
X134309523Y-89564342D01*
X134309523Y-89564342D02*
X134261904Y-89659580D01*
X134261904Y-89659580D02*
X134214285Y-89707200D01*
X134214285Y-89707200D02*
X134119047Y-89754819D01*
X134119047Y-89754819D02*
X133880952Y-89754819D01*
X133880952Y-89754819D02*
X133785714Y-89707200D01*
X133785714Y-89707200D02*
X133738095Y-89659580D01*
X120833333Y-81084819D02*
X120500000Y-80608628D01*
X120261905Y-81084819D02*
X120261905Y-80084819D01*
X120261905Y-80084819D02*
X120642857Y-80084819D01*
X120642857Y-80084819D02*
X120738095Y-80132438D01*
X120738095Y-80132438D02*
X120785714Y-80180057D01*
X120785714Y-80180057D02*
X120833333Y-80275295D01*
X120833333Y-80275295D02*
X120833333Y-80418152D01*
X120833333Y-80418152D02*
X120785714Y-80513390D01*
X120785714Y-80513390D02*
X120738095Y-80561009D01*
X120738095Y-80561009D02*
X120642857Y-80608628D01*
X120642857Y-80608628D02*
X120261905Y-80608628D01*
X121166667Y-80084819D02*
X121833333Y-80084819D01*
X121833333Y-80084819D02*
X121404762Y-81084819D01*
X136838095Y-72464819D02*
X136838095Y-73274342D01*
X136838095Y-73274342D02*
X136885714Y-73369580D01*
X136885714Y-73369580D02*
X136933333Y-73417200D01*
X136933333Y-73417200D02*
X137028571Y-73464819D01*
X137028571Y-73464819D02*
X137219047Y-73464819D01*
X137219047Y-73464819D02*
X137314285Y-73417200D01*
X137314285Y-73417200D02*
X137361904Y-73369580D01*
X137361904Y-73369580D02*
X137409523Y-73274342D01*
X137409523Y-73274342D02*
X137409523Y-72464819D01*
X138409523Y-73464819D02*
X137838095Y-73464819D01*
X138123809Y-73464819D02*
X138123809Y-72464819D01*
X138123809Y-72464819D02*
X138028571Y-72607676D01*
X138028571Y-72607676D02*
X137933333Y-72702914D01*
X137933333Y-72702914D02*
X137838095Y-72750533D01*
X120833333Y-88584819D02*
X120500000Y-88108628D01*
X120261905Y-88584819D02*
X120261905Y-87584819D01*
X120261905Y-87584819D02*
X120642857Y-87584819D01*
X120642857Y-87584819D02*
X120738095Y-87632438D01*
X120738095Y-87632438D02*
X120785714Y-87680057D01*
X120785714Y-87680057D02*
X120833333Y-87775295D01*
X120833333Y-87775295D02*
X120833333Y-87918152D01*
X120833333Y-87918152D02*
X120785714Y-88013390D01*
X120785714Y-88013390D02*
X120738095Y-88061009D01*
X120738095Y-88061009D02*
X120642857Y-88108628D01*
X120642857Y-88108628D02*
X120261905Y-88108628D01*
X121404762Y-88013390D02*
X121309524Y-87965771D01*
X121309524Y-87965771D02*
X121261905Y-87918152D01*
X121261905Y-87918152D02*
X121214286Y-87822914D01*
X121214286Y-87822914D02*
X121214286Y-87775295D01*
X121214286Y-87775295D02*
X121261905Y-87680057D01*
X121261905Y-87680057D02*
X121309524Y-87632438D01*
X121309524Y-87632438D02*
X121404762Y-87584819D01*
X121404762Y-87584819D02*
X121595238Y-87584819D01*
X121595238Y-87584819D02*
X121690476Y-87632438D01*
X121690476Y-87632438D02*
X121738095Y-87680057D01*
X121738095Y-87680057D02*
X121785714Y-87775295D01*
X121785714Y-87775295D02*
X121785714Y-87822914D01*
X121785714Y-87822914D02*
X121738095Y-87918152D01*
X121738095Y-87918152D02*
X121690476Y-87965771D01*
X121690476Y-87965771D02*
X121595238Y-88013390D01*
X121595238Y-88013390D02*
X121404762Y-88013390D01*
X121404762Y-88013390D02*
X121309524Y-88061009D01*
X121309524Y-88061009D02*
X121261905Y-88108628D01*
X121261905Y-88108628D02*
X121214286Y-88203866D01*
X121214286Y-88203866D02*
X121214286Y-88394342D01*
X121214286Y-88394342D02*
X121261905Y-88489580D01*
X121261905Y-88489580D02*
X121309524Y-88537200D01*
X121309524Y-88537200D02*
X121404762Y-88584819D01*
X121404762Y-88584819D02*
X121595238Y-88584819D01*
X121595238Y-88584819D02*
X121690476Y-88537200D01*
X121690476Y-88537200D02*
X121738095Y-88489580D01*
X121738095Y-88489580D02*
X121785714Y-88394342D01*
X121785714Y-88394342D02*
X121785714Y-88203866D01*
X121785714Y-88203866D02*
X121738095Y-88108628D01*
X121738095Y-88108628D02*
X121690476Y-88061009D01*
X121690476Y-88061009D02*
X121595238Y-88013390D01*
X133404761Y-99850057D02*
X133309523Y-99802438D01*
X133309523Y-99802438D02*
X133214285Y-99707200D01*
X133214285Y-99707200D02*
X133071428Y-99564342D01*
X133071428Y-99564342D02*
X132976190Y-99516723D01*
X132976190Y-99516723D02*
X132880952Y-99516723D01*
X132928571Y-99754819D02*
X132833333Y-99707200D01*
X132833333Y-99707200D02*
X132738095Y-99611961D01*
X132738095Y-99611961D02*
X132690476Y-99421485D01*
X132690476Y-99421485D02*
X132690476Y-99088152D01*
X132690476Y-99088152D02*
X132738095Y-98897676D01*
X132738095Y-98897676D02*
X132833333Y-98802438D01*
X132833333Y-98802438D02*
X132928571Y-98754819D01*
X132928571Y-98754819D02*
X133119047Y-98754819D01*
X133119047Y-98754819D02*
X133214285Y-98802438D01*
X133214285Y-98802438D02*
X133309523Y-98897676D01*
X133309523Y-98897676D02*
X133357142Y-99088152D01*
X133357142Y-99088152D02*
X133357142Y-99421485D01*
X133357142Y-99421485D02*
X133309523Y-99611961D01*
X133309523Y-99611961D02*
X133214285Y-99707200D01*
X133214285Y-99707200D02*
X133119047Y-99754819D01*
X133119047Y-99754819D02*
X132928571Y-99754819D01*
X134214285Y-99088152D02*
X134214285Y-99754819D01*
X133976190Y-98707200D02*
X133738095Y-99421485D01*
X133738095Y-99421485D02*
X134357142Y-99421485D01*
X133404761Y-109490057D02*
X133309523Y-109442438D01*
X133309523Y-109442438D02*
X133214285Y-109347200D01*
X133214285Y-109347200D02*
X133071428Y-109204342D01*
X133071428Y-109204342D02*
X132976190Y-109156723D01*
X132976190Y-109156723D02*
X132880952Y-109156723D01*
X132928571Y-109394819D02*
X132833333Y-109347200D01*
X132833333Y-109347200D02*
X132738095Y-109251961D01*
X132738095Y-109251961D02*
X132690476Y-109061485D01*
X132690476Y-109061485D02*
X132690476Y-108728152D01*
X132690476Y-108728152D02*
X132738095Y-108537676D01*
X132738095Y-108537676D02*
X132833333Y-108442438D01*
X132833333Y-108442438D02*
X132928571Y-108394819D01*
X132928571Y-108394819D02*
X133119047Y-108394819D01*
X133119047Y-108394819D02*
X133214285Y-108442438D01*
X133214285Y-108442438D02*
X133309523Y-108537676D01*
X133309523Y-108537676D02*
X133357142Y-108728152D01*
X133357142Y-108728152D02*
X133357142Y-109061485D01*
X133357142Y-109061485D02*
X133309523Y-109251961D01*
X133309523Y-109251961D02*
X133214285Y-109347200D01*
X133214285Y-109347200D02*
X133119047Y-109394819D01*
X133119047Y-109394819D02*
X132928571Y-109394819D01*
X133690476Y-108394819D02*
X134309523Y-108394819D01*
X134309523Y-108394819D02*
X133976190Y-108775771D01*
X133976190Y-108775771D02*
X134119047Y-108775771D01*
X134119047Y-108775771D02*
X134214285Y-108823390D01*
X134214285Y-108823390D02*
X134261904Y-108871009D01*
X134261904Y-108871009D02*
X134309523Y-108966247D01*
X134309523Y-108966247D02*
X134309523Y-109204342D01*
X134309523Y-109204342D02*
X134261904Y-109299580D01*
X134261904Y-109299580D02*
X134214285Y-109347200D01*
X134214285Y-109347200D02*
X134119047Y-109394819D01*
X134119047Y-109394819D02*
X133833333Y-109394819D01*
X133833333Y-109394819D02*
X133738095Y-109347200D01*
X133738095Y-109347200D02*
X133690476Y-109299580D01*
X120833333Y-60084819D02*
X120500000Y-59608628D01*
X120261905Y-60084819D02*
X120261905Y-59084819D01*
X120261905Y-59084819D02*
X120642857Y-59084819D01*
X120642857Y-59084819D02*
X120738095Y-59132438D01*
X120738095Y-59132438D02*
X120785714Y-59180057D01*
X120785714Y-59180057D02*
X120833333Y-59275295D01*
X120833333Y-59275295D02*
X120833333Y-59418152D01*
X120833333Y-59418152D02*
X120785714Y-59513390D01*
X120785714Y-59513390D02*
X120738095Y-59561009D01*
X120738095Y-59561009D02*
X120642857Y-59608628D01*
X120642857Y-59608628D02*
X120261905Y-59608628D01*
X121785714Y-60084819D02*
X121214286Y-60084819D01*
X121500000Y-60084819D02*
X121500000Y-59084819D01*
X121500000Y-59084819D02*
X121404762Y-59227676D01*
X121404762Y-59227676D02*
X121309524Y-59322914D01*
X121309524Y-59322914D02*
X121214286Y-59370533D01*
X141904761Y-99850057D02*
X141809523Y-99802438D01*
X141809523Y-99802438D02*
X141714285Y-99707200D01*
X141714285Y-99707200D02*
X141571428Y-99564342D01*
X141571428Y-99564342D02*
X141476190Y-99516723D01*
X141476190Y-99516723D02*
X141380952Y-99516723D01*
X141428571Y-99754819D02*
X141333333Y-99707200D01*
X141333333Y-99707200D02*
X141238095Y-99611961D01*
X141238095Y-99611961D02*
X141190476Y-99421485D01*
X141190476Y-99421485D02*
X141190476Y-99088152D01*
X141190476Y-99088152D02*
X141238095Y-98897676D01*
X141238095Y-98897676D02*
X141333333Y-98802438D01*
X141333333Y-98802438D02*
X141428571Y-98754819D01*
X141428571Y-98754819D02*
X141619047Y-98754819D01*
X141619047Y-98754819D02*
X141714285Y-98802438D01*
X141714285Y-98802438D02*
X141809523Y-98897676D01*
X141809523Y-98897676D02*
X141857142Y-99088152D01*
X141857142Y-99088152D02*
X141857142Y-99421485D01*
X141857142Y-99421485D02*
X141809523Y-99611961D01*
X141809523Y-99611961D02*
X141714285Y-99707200D01*
X141714285Y-99707200D02*
X141619047Y-99754819D01*
X141619047Y-99754819D02*
X141428571Y-99754819D01*
X142190476Y-98754819D02*
X142857142Y-98754819D01*
X142857142Y-98754819D02*
X142428571Y-99754819D01*
X120833333Y-67084819D02*
X120500000Y-66608628D01*
X120261905Y-67084819D02*
X120261905Y-66084819D01*
X120261905Y-66084819D02*
X120642857Y-66084819D01*
X120642857Y-66084819D02*
X120738095Y-66132438D01*
X120738095Y-66132438D02*
X120785714Y-66180057D01*
X120785714Y-66180057D02*
X120833333Y-66275295D01*
X120833333Y-66275295D02*
X120833333Y-66418152D01*
X120833333Y-66418152D02*
X120785714Y-66513390D01*
X120785714Y-66513390D02*
X120738095Y-66561009D01*
X120738095Y-66561009D02*
X120642857Y-66608628D01*
X120642857Y-66608628D02*
X120261905Y-66608628D01*
X121214286Y-66180057D02*
X121261905Y-66132438D01*
X121261905Y-66132438D02*
X121357143Y-66084819D01*
X121357143Y-66084819D02*
X121595238Y-66084819D01*
X121595238Y-66084819D02*
X121690476Y-66132438D01*
X121690476Y-66132438D02*
X121738095Y-66180057D01*
X121738095Y-66180057D02*
X121785714Y-66275295D01*
X121785714Y-66275295D02*
X121785714Y-66370533D01*
X121785714Y-66370533D02*
X121738095Y-66513390D01*
X121738095Y-66513390D02*
X121166667Y-67084819D01*
X121166667Y-67084819D02*
X121785714Y-67084819D01*
%TO.C,R11*%
D11*
X101130000Y-94730000D02*
X103870000Y-94730000D01*
X103870000Y-101270000D01*
X101130000Y-101270000D01*
X101130000Y-94730000D01*
X102500000Y-93960000D02*
X102500000Y-94730000D01*
X102500000Y-102040000D02*
X102500000Y-101270000D01*
%TO.C,R4*%
X108130000Y-68730000D02*
X110870000Y-68730000D01*
X110870000Y-75270000D01*
X108130000Y-75270000D01*
X108130000Y-68730000D01*
X109500000Y-67960000D02*
X109500000Y-68730000D01*
X109500000Y-76040000D02*
X109500000Y-75270000D01*
%TO.C,Q8*%
X140200000Y-114350000D02*
X143800000Y-114350000D01*
X140161522Y-114338478D02*
G75*
G02*
X142000000Y-109899999I1838478J1838478D01*
G01*
X142000000Y-109900000D02*
G75*
G02*
X143838478Y-114338478I0J-2600000D01*
G01*
%TO.C,R3*%
X116960000Y-76000000D02*
X117730000Y-76000000D01*
X125040000Y-76000000D02*
X124270000Y-76000000D01*
X117730000Y-74630000D02*
X124270000Y-74630000D01*
X124270000Y-77370000D01*
X117730000Y-77370000D01*
X117730000Y-74630000D01*
%TO.C,Q1*%
X115930000Y-114350000D02*
X119530000Y-114350000D01*
X115891522Y-114338478D02*
G75*
G02*
X117730000Y-109899999I1838478J1838478D01*
G01*
X117730000Y-109900000D02*
G75*
G02*
X119568478Y-114338478I0J-2600000D01*
G01*
%TO.C,R12*%
X109500000Y-108040000D02*
X109500000Y-107270000D01*
X109500000Y-99960000D02*
X109500000Y-100730000D01*
X108130000Y-100730000D02*
X110870000Y-100730000D01*
X110870000Y-107270000D01*
X108130000Y-107270000D01*
X108130000Y-100730000D01*
%TO.C,Q2*%
X123700000Y-114350000D02*
X127300000Y-114350000D01*
X123661522Y-114338478D02*
G75*
G02*
X125500000Y-109899999I1838478J1838478D01*
G01*
X125500000Y-109900000D02*
G75*
G02*
X127338478Y-114338478I0J-2600000D01*
G01*
%TO.C,R5*%
X109500000Y-92120000D02*
X109500000Y-91350000D01*
X109500000Y-84040000D02*
X109500000Y-84810000D01*
X108130000Y-84810000D02*
X110870000Y-84810000D01*
X110870000Y-91350000D01*
X108130000Y-91350000D01*
X108130000Y-84810000D01*
%TO.C,R10*%
X116960000Y-105000000D02*
X117730000Y-105000000D01*
X125040000Y-105000000D02*
X124270000Y-105000000D01*
X117730000Y-103630000D02*
X124270000Y-103630000D01*
X124270000Y-106370000D01*
X117730000Y-106370000D01*
X117730000Y-103630000D01*
%TO.C,J1*%
X150620000Y-93810000D02*
X152000000Y-93810000D01*
X150620000Y-95190000D02*
X150620000Y-93810000D01*
X150620000Y-96460000D02*
X150620000Y-104190000D01*
X150620000Y-96460000D02*
X153380000Y-96460000D01*
X150620000Y-104190000D02*
X153380000Y-104190000D01*
X153380000Y-96460000D02*
X153380000Y-104190000D01*
%TO.C,Q6*%
X140200000Y-94710000D02*
X143800000Y-94710000D01*
X140161522Y-94698478D02*
G75*
G02*
X142000000Y-90259999I1838478J1838478D01*
G01*
X142000000Y-90260000D02*
G75*
G02*
X143838478Y-94698478I0J-2600000D01*
G01*
%TO.C,R6*%
X102500000Y-82540000D02*
X102500000Y-81770000D01*
X102500000Y-74460000D02*
X102500000Y-75230000D01*
X101130000Y-75230000D02*
X103870000Y-75230000D01*
X103870000Y-81770000D01*
X101130000Y-81770000D01*
X101130000Y-75230000D01*
%TO.C,R9*%
X116960000Y-97500000D02*
X117730000Y-97500000D01*
X125040000Y-97500000D02*
X124270000Y-97500000D01*
X117730000Y-96130000D02*
X124270000Y-96130000D01*
X124270000Y-98870000D01*
X117730000Y-98870000D01*
X117730000Y-96130000D01*
%TO.C,J2*%
X150620000Y-73540000D02*
X152000000Y-73540000D01*
X150620000Y-74920000D02*
X150620000Y-73540000D01*
X150620000Y-76190000D02*
X150620000Y-81380000D01*
X150620000Y-76190000D02*
X153380000Y-76190000D01*
X150620000Y-81380000D02*
X153380000Y-81380000D01*
X153380000Y-76190000D02*
X153380000Y-81380000D01*
%TO.C,Q5*%
X131700000Y-94710000D02*
X135300000Y-94710000D01*
X131661522Y-94698478D02*
G75*
G02*
X133500000Y-90259999I1838478J1838478D01*
G01*
X133500000Y-90260000D02*
G75*
G02*
X135338478Y-94698478I0J-2600000D01*
G01*
%TO.C,R7*%
X116960000Y-83000000D02*
X117730000Y-83000000D01*
X125040000Y-83000000D02*
X124270000Y-83000000D01*
X117730000Y-81630000D02*
X124270000Y-81630000D01*
X124270000Y-84370000D01*
X117730000Y-84370000D01*
X117730000Y-81630000D01*
%TO.C,U1*%
X130190000Y-59040000D02*
X144810000Y-59040000D01*
X144810000Y-83960000D01*
X130190000Y-83960000D01*
X130190000Y-59040000D01*
X132500000Y-78510000D02*
X142820000Y-78510000D01*
X142820000Y-83650000D01*
X132500000Y-83650000D01*
X132500000Y-78510000D01*
X133319079Y-77360245D02*
X134319079Y-77360245D01*
X133819079Y-78360245D01*
X133319079Y-77360245D01*
G36*
X133819079Y-78360245D02*
G01*
X133319079Y-77360245D01*
X134319079Y-77360245D01*
X133819079Y-78360245D01*
G37*
%TO.C,R8*%
X116960000Y-90500000D02*
X117730000Y-90500000D01*
X125040000Y-90500000D02*
X124270000Y-90500000D01*
X117730000Y-89130000D02*
X124270000Y-89130000D01*
X124270000Y-91870000D01*
X117730000Y-91870000D01*
X117730000Y-89130000D01*
%TO.C,Q4*%
X131700000Y-104710000D02*
X135300000Y-104710000D01*
X131661522Y-104698478D02*
G75*
G02*
X133500000Y-100259999I1838478J1838478D01*
G01*
X133500000Y-100260000D02*
G75*
G02*
X135338478Y-104698478I0J-2600000D01*
G01*
%TO.C,Q3*%
X131700000Y-114350000D02*
X135300000Y-114350000D01*
X131661522Y-114338478D02*
G75*
G02*
X133500000Y-109899999I1838478J1838478D01*
G01*
X133500000Y-109900000D02*
G75*
G02*
X135338478Y-114338478I0J-2600000D01*
G01*
%TO.C,R1*%
X116960000Y-62000000D02*
X117730000Y-62000000D01*
X125040000Y-62000000D02*
X124270000Y-62000000D01*
X117730000Y-60630000D02*
X124270000Y-60630000D01*
X124270000Y-63370000D01*
X117730000Y-63370000D01*
X117730000Y-60630000D01*
%TO.C,Q7*%
X140200000Y-104710000D02*
X143800000Y-104710000D01*
X140161522Y-104698478D02*
G75*
G02*
X142000000Y-100259999I1838478J1838478D01*
G01*
X142000000Y-100260000D02*
G75*
G02*
X143838478Y-104698478I0J-2600000D01*
G01*
%TO.C,R2*%
X116960000Y-69000000D02*
X117730000Y-69000000D01*
X125040000Y-69000000D02*
X124270000Y-69000000D01*
X117730000Y-67630000D02*
X124270000Y-67630000D01*
X124270000Y-70370000D01*
X117730000Y-70370000D01*
X117730000Y-67630000D01*
%TD*%
M02*
